<svg width="16" height="16" viewBox="0 0 16 16" fill="none" xmlns="http://www.w3.org/2000/svg">
<path d="M5.99992 3.3335H4.66659C4.31297 3.3335 3.97383 3.47397 3.72378 3.72402C3.47373 3.97407 3.33325 4.31321 3.33325 4.66683V12.6668C3.33325 13.0204 3.47373 13.3596 3.72378 13.6096C3.97383 13.8597 4.31297 14.0002 4.66659 14.0002H11.3333C11.6869 14.0002 12.026 13.8597 12.2761 13.6096C12.5261 13.3596 12.6666 13.0204 12.6666 12.6668V4.66683C12.6666 4.31321 12.5261 3.97407 12.2761 3.72402C12.026 3.47397 11.6869 3.3335 11.3333 3.3335H9.99992" stroke="#2563EB" stroke-width="1.33333" stroke-linecap="round" stroke-linejoin="round"/>
<path d="M6 3.33333C6 2.97971 6.14047 2.64057 6.39053 2.39053C6.64057 2.14047 6.97973 2 7.33333 2H8.66667C9.02027 2 9.3594 2.14047 9.60947 2.39053C9.85953 2.64057 10 2.97971 10 3.33333C10 3.68695 9.85953 4.02609 9.60947 4.27614C9.3594 4.52619 9.02027 4.66667 8.66667 4.66667H7.33333C6.97973 4.66667 6.64057 4.52619 6.39053 4.27614C6.14047 4.02609 6 3.68695 6 3.33333Z" stroke="#2563EB" stroke-width="1.33333" stroke-linecap="round" stroke-linejoin="round"/>
<path d="M6 8H10" stroke="#2563EB" stroke-width="1.33333" stroke-linecap="round" stroke-linejoin="round"/>
<path d="M6 10.6665H10" stroke="#2563EB" stroke-width="1.33333" stroke-linecap="round" stroke-linejoin="round"/>
</svg>
