<svg width="523" height="194" viewBox="0 0 523 194" fill="none" xmlns="http://www.w3.org/2000/svg">
<rect width="523" height="194" rx="12" fill="#F3F4F6"/>
<path d="M73.1996 53.7943C75.2297 55.6275 75.3937 58.7378 73.5687 60.777L58.8045 77.2553C57.9023 78.2646 56.6309 78.8619 55.2775 78.8825C53.9241 78.9031 52.6323 78.3882 51.6685 77.4406L43.4457 69.2015C41.5386 67.2653 41.5386 64.1344 43.4457 62.1982C45.3527 60.262 48.4901 60.262 50.3971 62.1982L54.9289 66.7504L66.2276 54.1445C68.0526 52.1053 71.149 51.9405 73.1791 53.7737L73.1996 53.7943ZM73.1996 86.7509C75.2297 88.5841 75.3937 91.6944 73.5687 93.7336L58.8045 110.212C57.9023 111.221 56.6309 111.818 55.2775 111.839C53.9241 111.86 52.6323 111.345 51.6685 110.397L43.4457 102.158C41.5181 100.222 41.5181 97.091 43.4457 95.1754C45.3732 93.2598 48.4901 93.2392 50.3971 95.1754L54.9289 99.7275L66.2276 87.1216C68.0526 85.0825 71.149 84.9177 73.1791 86.7509H73.1996ZM87.9433 65.6999C87.9433 62.054 90.8756 59.1086 94.5051 59.1086H140.438C144.068 59.1086 147 62.054 147 65.6999C147 69.3457 144.068 72.2912 140.438 72.2912H94.5051C90.8756 72.2912 87.9433 69.3457 87.9433 65.6999ZM87.9433 98.6564C87.9433 95.0106 90.8756 92.0651 94.5051 92.0651H140.438C144.068 92.0651 147 95.0106 147 98.6564C147 102.302 144.068 105.248 140.438 105.248H94.5051C90.8756 105.248 87.9433 102.302 87.9433 98.6564ZM74.8196 131.613C74.8196 127.967 77.7519 125.022 81.3814 125.022H140.438C144.068 125.022 147 127.967 147 131.613C147 135.259 144.068 138.204 140.438 138.204H81.3814C77.7519 138.204 74.8196 135.259 74.8196 131.613ZM51.853 121.726C54.4635 121.726 56.9671 122.768 58.8129 124.622C60.6588 126.476 61.6958 128.991 61.6958 131.613C61.6958 134.235 60.6588 136.75 58.8129 138.604C56.9671 140.458 54.4635 141.5 51.853 141.5C49.2426 141.5 46.739 140.458 44.8931 138.604C43.0473 136.75 42.0103 134.235 42.0103 131.613C42.0103 128.991 43.0473 126.476 44.8931 124.622C46.739 122.768 49.2426 121.726 51.853 121.726Z" fill="#111827"/>
<path d="M193.624 82.876V121.916C193.624 124.561 194.221 126.481 195.416 127.676C196.696 128.785 198.829 129.34 201.816 129.34H210.776V141.5H199.256C192.685 141.5 187.651 139.964 184.152 136.892C180.653 133.82 178.904 128.828 178.904 121.916V82.876H170.584V70.972H178.904V53.436H193.624V70.972H210.776V82.876H193.624ZM219.361 105.916C219.361 98.8333 220.812 92.5613 223.713 87.1C226.7 81.6387 230.71 77.4147 235.745 74.428C240.865 71.356 246.497 69.82 252.641 69.82C258.188 69.82 263.009 70.9293 267.105 73.148C271.286 75.2813 274.614 77.9693 277.089 81.212V70.972H291.809V141.5H277.089V131.004C274.614 134.332 271.244 137.105 266.977 139.324C262.71 141.543 257.846 142.652 252.385 142.652C246.326 142.652 240.78 141.116 235.745 138.044C230.71 134.887 226.7 130.535 223.713 124.988C220.812 119.356 219.361 112.999 219.361 105.916ZM277.089 106.172C277.089 101.308 276.065 97.084 274.017 93.5C272.054 89.916 269.452 87.1853 266.209 85.308C262.966 83.4307 259.468 82.492 255.713 82.492C251.958 82.492 248.46 83.4307 245.217 85.308C241.974 87.1 239.329 89.788 237.281 93.372C235.318 96.8707 234.337 101.052 234.337 105.916C234.337 110.78 235.318 115.047 237.281 118.716C239.329 122.385 241.974 125.201 245.217 127.164C248.545 129.041 252.044 129.98 255.713 129.98C259.468 129.98 262.966 129.041 266.209 127.164C269.452 125.287 272.054 122.556 274.017 118.972C276.065 115.303 277.089 111.036 277.089 106.172ZM336.575 142.652C331.028 142.652 326.036 141.671 321.599 139.708C317.247 137.66 313.791 134.929 311.231 131.516C308.671 128.017 307.306 124.135 307.135 119.868H322.239C322.495 122.855 323.903 125.372 326.463 127.42C329.108 129.383 332.394 130.364 336.319 130.364C340.415 130.364 343.572 129.596 345.791 128.06C348.095 126.439 349.247 124.391 349.247 121.916C349.247 119.271 347.967 117.308 345.407 116.028C342.932 114.748 338.964 113.34 333.503 111.804C328.212 110.353 323.903 108.945 320.575 107.58C317.247 106.215 314.346 104.124 311.871 101.308C309.482 98.492 308.287 94.78 308.287 90.172C308.287 86.4173 309.396 83.004 311.615 79.932C313.834 76.7747 316.991 74.3 321.087 72.508C325.268 70.716 330.047 69.82 335.423 69.82C343.444 69.82 349.887 71.868 354.751 75.964C359.7 79.9747 362.346 85.4787 362.687 92.476H348.095C347.839 89.3187 346.559 86.8013 344.255 84.924C341.951 83.0467 338.836 82.108 334.911 82.108C331.071 82.108 328.127 82.8333 326.079 84.284C324.031 85.7347 323.007 87.6547 323.007 90.044C323.007 91.9213 323.69 93.5 325.055 94.78C326.42 96.06 328.084 97.084 330.047 97.852C332.01 98.5347 334.911 99.4307 338.751 100.54C343.871 101.905 348.052 103.313 351.295 104.764C354.623 106.129 357.482 108.177 359.871 110.908C362.26 113.639 363.498 117.265 363.583 121.788C363.583 125.799 362.474 129.383 360.255 132.54C358.036 135.697 354.879 138.172 350.783 139.964C346.772 141.756 342.036 142.652 336.575 142.652ZM407.254 106.3L439.766 141.5H420.054L393.942 111.164V141.5H379.35V46.78H393.942V101.82L419.542 70.972H439.766L407.254 106.3ZM457.649 61.628C455.004 61.628 452.785 60.732 450.993 58.94C449.201 57.148 448.305 54.9293 448.305 52.284C448.305 49.6387 449.201 47.42 450.993 45.628C452.785 43.836 455.004 42.94 457.649 42.94C460.209 42.94 462.385 43.836 464.177 45.628C465.969 47.42 466.865 49.6387 466.865 52.284C466.865 54.9293 465.969 57.148 464.177 58.94C462.385 60.732 460.209 61.628 457.649 61.628ZM464.817 70.972V141.5H450.225V70.972H464.817Z" fill="#111827"/>
</svg>
